<?xml version="1.0" encoding="utf-8"?>
<!-- Generator: Adobe Illustrator 20.1.0, SVG Export Plug-In . SVG Version: 6.00 Build 0)  -->
<svg version="1.1" xmlns="http://www.w3.org/2000/svg" xmlns:xlink="http://www.w3.org/1999/xlink" x="0px" y="0px"
	 viewBox="0 0 72 72" style="enable-background:new 0 0 72 72;" xml:space="preserve">
<style type="text/css">
	.st0{display:none;}
	.st1{fill:#777272;}
	.st2{fill:#F1B7AE;}
</style>
<g id="Layer_1" class="st0">
	
		<image style="display:inline;overflow:visible;" width="820" height="546" xlink:href="../tracing_photos/butterfly-animation-clip-art-png-favpng-NBRZNdkdGg6imYNCyy7AGZvfw.jpg"  transform="matrix(7.500000e-02 0 0 7.500000e-02 5.25 15.525)">
	</image>
</g>
<g id="a1">
	<path class="st1" d="M66.8,16.4c-0.5-1-3.3-0.5-4.9-0.2c-3.4,0.6-5.8,1.7-6.4,2c-2.3,1.1-3.8,2.3-6,4c-3,2.3-4.9,4.3-7.4,6.9
		c-2.6,2.7-3.9,4-4.5,5.2c-0.4,0.7-2.6,5.3-0.8,9.6c0.1,0.3,0.5,0.9,1.2,2.1c0.9,1.4,1.8,2.8,4,5.9c3,4.2,3.3,4.4,3.9,4.6
		c1.7,0.6,3.3,0,5.4-0.8c1.3-0.5,3.6-1.7,5.6-4c0.9-1,2-2.3,2.5-4.4c0.1-0.5,0.5-2.2,0-4.4c-0.4-1.7-1.1-2.8-1.4-3.1
		c-1-1.4-2.2-2.2-2.9-2.6c0.4,0.1,1.7,0.3,3-0.4c1.1-0.6,1.7-1.5,2-2.1c0.6-1,0.6-1.8,0.9-3.2c0.4-2.5,0.7-3.8,1.2-5.1
		c0.9-2,1.4-1.7,2.4-4c0.5-1.3,0.4-1.4,1.1-3.2C66.6,17.2,67,16.8,66.8,16.4z"/>
	<path class="st1" d="M5.2,16.4c0.5-1,3.3-0.5,4.9-0.2c3.4,0.6,5.8,1.7,6.4,2c2.3,1.1,3.8,2.3,6,4c3,2.3,4.9,4.3,7.4,6.9
		c2.6,2.7,3.9,4,4.5,5.2c0.4,0.7,2.6,5.3,0.8,9.6c-0.1,0.3-0.5,0.9-1.2,2.1c-0.9,1.4-1.8,2.8-4,5.9c-3,4.2-3.3,4.4-3.9,4.6
		c-1.7,0.6-3.3,0-5.4-0.8c-1.3-0.5-3.6-1.7-5.6-4c-0.9-1-2-2.3-2.5-4.4c-0.1-0.5-0.5-2.2,0-4.4c0.4-1.7,1.1-2.8,1.4-3.1
		c1-1.4,2.2-2.2,2.9-2.6c-0.4,0.1-1.7,0.3-3-0.4c-1.1-0.6-1.7-1.5-2-2.1c-0.6-1-0.6-1.8-0.9-3.2c-0.4-2.5-0.7-3.8-1.2-5.1
		c-0.9-2-1.4-1.7-2.4-4C6.7,21,6.9,20.8,6.1,19C5.4,17.2,5,16.8,5.2,16.4z"/>
	<path class="st1" d="M38.4,36c-0.2-1-0.9-2.1-1.1-2.4c0,0,0,0-0.1-0.1c-0.2-0.2-0.4-0.2-0.4-0.3c0-0.1,0.2-0.2,0.3-0.4
		c0.1-0.2-0.1-0.3-0.3-0.7c-0.2-0.5,0-0.8-0.2-1c-0.1-0.1-0.3-0.1-0.4-0.1c0,0-0.1,0-0.2,0.2C35.9,31,35.8,31,35.8,31
		c-0.1,0-0.3,0-0.4,0.1c-0.2,0.2-0.1,0.4-0.2,1c-0.1,0.4-0.3,0.5-0.3,0.7c0.1,0.2,0.3,0.3,0.3,0.4c0,0.1-0.2,0.1-0.4,0.3
		c0,0,0,0.1-0.1,0.1c-0.2,0.3-0.9,1.4-1.1,2.4c-0.2,1-0.1,1.8,0.2,3.3c0.2,0.9,0.2,1.2,0.8,3.2c0.5,2,0.7,3,0.8,3.8
		c0.2,1.5,0.3,2.2,0.1,3.1c-0.1,0.8-0.3,1.5-0.1,2.4c0.2,0.5,0.4,0.9,0.6,1.1c0.2-0.2,0.5-0.6,0.6-1.1c0.3-0.9,0.1-1.6-0.1-2.4
		c-0.1-0.9,0-1.6,0.1-3.1c0.1-0.8,0.3-1.8,0.8-3.8c0.5-2.1,0.6-2.3,0.8-3.2C38.5,37.8,38.6,37,38.4,36z"/>
	<path class="st2" d="M40.1,35c-0.1-0.8,2.6-6,11.2-10.6c2.9-1.6,3.7-2.6,5-2.2c1.1,0.3,2.3,1.3,2.4,2.4c0.1,1.2-1.3,1.5-1.4,3
		c0,1.1,0.7,1.1,0.9,2.6c0.1,1-0.1,2-0.4,2.9c-0.3,1-0.4,1.5-0.6,1.8c-0.8,0.7-2.1,0-4-0.1c-0.9-0.1-0.9,0.1-5.4,0.9
		C43.9,36.2,40.3,36,40.1,35z M38.6,40.5c-0.2,1.9,0.3,3.5,0.5,4.1c0.4,1.4,5.3,7.5,6.1,7.7c0.8,0.2,0.7,0.3,2.7-0.2
		c1.6-0.4,1.6-0.1,2.8-0.5c0.7-0.2,1.9-0.6,3-1.6c1.1-1,0.8-1.6,2-2.5c0.9-0.7,1.4-0.7,1.6-1.2c0.2-0.6-0.1-0.9-0.8-2.6
		c-0.6-1.8-0.4-2-1-2.9c-0.5-0.8-1.1-1.3-1.5-1.6c-0.3-0.3-1.3-1-2.6-1.4c-2-0.5-2.3,0.5-5.1,0.4c-0.9,0-2-0.2-4.4-0.5
		c-1.1-0.1-1.7-0.2-2.2,0.1C38.8,38.3,38.7,39.4,38.6,40.5z"/>
	<path class="st2" d="M24.1,35.5c-4.5-0.8-4.4-1-5.4-0.9c-1.9,0.2-3.2,0.9-4,0.1c-0.3-0.2-0.4-0.8-0.6-1.8c-0.2-0.9-0.5-1.8-0.4-2.9
		c0.2-1.5,0.9-1.6,0.9-2.6c-0.1-1.5-1.4-1.8-1.4-3c0.1-1.1,1.2-2.1,2.4-2.4c1.3-0.3,2.1,0.7,5,2.2C29.2,29,32,34.2,31.9,35
		C31.7,36,28.1,36.2,24.1,35.5z M32.4,37.8c-0.6-0.4-1.2-0.3-2.2-0.1c-2.3,0.3-3.5,0.5-4.4,0.5c-2.8,0.1-3.1-0.9-5.1-0.4
		c-1.3,0.4-2.3,1.1-2.6,1.4c-0.4,0.3-1,0.8-1.5,1.6c-0.6,0.9-0.4,1.1-1,2.9c-0.6,1.7-1,2-0.8,2.6c0.2,0.6,0.7,0.5,1.6,1.2
		c1.2,0.9,0.9,1.5,2,2.5c1.1,1,2.3,1.4,3,1.6c1.1,0.4,1.2,0.1,2.8,0.5c2,0.5,1.9,0.3,2.7,0.2c0.8-0.2,5.7-6.3,6.1-7.7
		c0.2-0.7,0.7-2.2,0.5-4.1C33.3,39.4,33.2,38.3,32.4,37.8z"/>
</g>
<g id="a2">
</g>
<g id="a3">
</g>
<g id="a4">
</g>
<g id="a5">
</g>
<g id="a6">
</g>
<g id="a7">
</g>
<g id="Layer_9">
</g>
</svg>
