<?xml version="1.0" encoding="utf-8"?>
<!-- Generator: Adobe Illustrator 20.1.0, SVG Export Plug-In . SVG Version: 6.00 Build 0)  -->
<svg version="1.1" xmlns="http://www.w3.org/2000/svg" xmlns:xlink="http://www.w3.org/1999/xlink" x="0px" y="0px"
	 viewBox="0 0 72 72" style="enable-background:new 0 0 72 72;" xml:space="preserve">
<style type="text/css">
	.st0{display:none;}
	.st1{fill:#777272;}
	.st2{fill:#F1B7AE;}
</style>
<g id="Layer_1" class="st0">
	
		<image style="display:inline;overflow:visible;" width="218" height="231" xlink:href="../tracing_photos/animaction.png"  transform="matrix(1 0 0 1 -69.1945 -43.5)">
	</image>
</g>
<g id="a1">
</g>
<g id="a2">
</g>
<g id="a3">
	<path class="st1" d="M57.7,16.4c-0.4-1-2.3-0.5-3.4-0.2c-2.4,0.6-4.1,1.7-4.5,2c-1.7,1.1-2.7,2.3-4.2,4c-2.1,2.3-3.5,4.3-5.2,6.9
		c-1.8,2.7-2.7,4-3.2,5.2c-0.3,0.7-1.8,5.3-0.5,9.6c0.1,0.3,0.4,0.9,0.9,2.1c0.6,1.4,1.3,2.8,2.8,5.9c2.1,4.2,2.4,4.4,2.7,4.6
		c1.2,0.6,2.4,0,3.8-0.8c0.9-0.5,2.6-1.7,4-4c0.6-1,1.4-2.3,1.8-4.4c0.1-0.5,0.4-2.2,0-4.4c-0.3-1.7-0.8-2.8-1-3.1
		c-0.7-1.4-1.5-2.2-2-2.6c0.3,0.1,1.2,0.3,2.1-0.4c0.8-0.6,1.2-1.5,1.4-2.1c0.4-1,0.4-1.8,0.6-3.2c0.3-2.5,0.5-3.8,0.9-5.1
		c0.6-2,1-1.7,1.7-4c0.4-1.3,0.3-1.4,0.8-3.2C57.6,17.2,57.9,16.8,57.7,16.4z"/>
	<path class="st1" d="M14.3,16.4c0.4-1,2.3-0.5,3.4-0.2c2.4,0.6,4.1,1.7,4.5,2c1.7,1.1,2.7,2.3,4.2,4c2.1,2.3,3.5,4.3,5.2,6.9
		c1.8,2.7,2.7,4,3.2,5.2c0.3,0.7,1.8,5.3,0.5,9.6c-0.1,0.3-0.4,0.9-0.9,2.1c-0.6,1.4-1.3,2.8-2.8,5.9c-2.1,4.2-2.4,4.4-2.7,4.6
		c-1.2,0.6-2.4,0-3.8-0.8c-0.9-0.5-2.6-1.7-4-4c-0.6-1-1.4-2.3-1.8-4.4c-0.1-0.5-0.4-2.2,0-4.4c0.3-1.7,0.8-2.8,1-3.1
		c0.7-1.4,1.5-2.2,2-2.6c-0.3,0.1-1.2,0.3-2.1-0.4c-0.8-0.6-1.2-1.5-1.4-2.1c-0.4-1-0.4-1.8-0.6-3.2c-0.3-2.5-0.5-3.8-0.9-5.1
		c-0.6-2-1-1.7-1.7-4c-0.4-1.3-0.3-1.4-0.8-3.2C14.4,17.2,14.1,16.8,14.3,16.4z"/>
	<path class="st1" d="M38.4,36c-0.2-1-0.9-2.1-1.1-2.4c0,0,0,0-0.1-0.1c-0.2-0.2-0.4-0.2-0.4-0.3c0-0.1,0.2-0.2,0.3-0.4
		c0.1-0.2-0.1-0.3-0.3-0.7c-0.2-0.5,0-0.8-0.2-1c-0.1-0.1-0.3-0.1-0.4-0.1c0,0-0.1,0-0.2,0.2C35.9,31,35.8,31,35.8,31
		c-0.1,0-0.3,0-0.4,0.1c-0.2,0.2-0.1,0.4-0.2,1c-0.1,0.4-0.3,0.5-0.3,0.7c0.1,0.2,0.3,0.3,0.3,0.4c0,0.1-0.2,0.1-0.4,0.3
		c0,0,0,0.1-0.1,0.1c-0.2,0.3-0.9,1.4-1.1,2.4c-0.2,1-0.1,1.8,0.2,3.3c0.2,0.9,0.2,1.2,0.8,3.2c0.5,2,0.7,3,0.8,3.8
		c0.2,1.5,0.3,2.2,0.1,3.1c-0.1,0.8-0.3,1.5-0.1,2.4c0.2,0.5,0.4,0.9,0.6,1.1c0.2-0.2,0.5-0.6,0.6-1.1c0.3-0.9,0.1-1.6-0.1-2.4
		c-0.1-0.9,0-1.6,0.1-3.1c0.1-0.8,0.3-1.8,0.8-3.8c0.5-2.1,0.6-2.3,0.8-3.2C38.5,37.8,38.6,37,38.4,36z"/>
	<path class="st2" d="M39,35c-0.1-0.8,1.8-6,7.9-10.6c2-1.6,2.6-2.6,3.5-2.2c0.8,0.3,1.6,1.3,1.7,2.4c0,1.2-0.9,1.5-1,3
		c0,1.1,0.5,1.1,0.6,2.6c0.1,1-0.1,2-0.3,2.9c-0.2,1-0.3,1.5-0.4,1.8c-0.6,0.7-1.5,0-2.8-0.1c-0.7-0.1-0.6,0.1-3.8,0.9
		C41.6,36.2,39.1,36,39,35z M37.9,40.5c-0.1,1.9,0.2,3.5,0.4,4.1c0.3,1.4,3.7,7.5,4.3,7.7c0.5,0.2,0.5,0.3,1.9-0.2
		c1.1-0.4,1.1-0.1,1.9-0.5c0.5-0.2,1.4-0.6,2.1-1.6c0.8-1,0.6-1.6,1.4-2.5c0.6-0.7,1-0.7,1.1-1.2c0.2-0.6-0.1-0.9-0.5-2.6
		c-0.4-1.8-0.3-2-0.7-2.9c-0.4-0.8-0.8-1.3-1.1-1.6c-0.2-0.3-0.9-1-1.8-1.4c-1.4-0.5-1.6,0.5-3.6,0.4c-0.6,0-1.4-0.2-3.1-0.5
		c-0.8-0.1-1.2-0.2-1.6,0.1C38,38.3,38,39.4,37.9,40.5z"/>
	<path class="st2" d="M27.6,35.5c-3.2-0.8-3.1-1-3.8-0.9c-1.3,0.2-2.3,0.9-2.8,0.1c-0.2-0.2-0.2-0.8-0.4-1.8
		c-0.2-0.9-0.3-1.8-0.3-2.9c0.1-1.5,0.6-1.6,0.6-2.6c0-1.5-1-1.8-1-3c0-1.1,0.9-2.1,1.7-2.4c0.9-0.3,1.5,0.7,3.5,2.2
		c6.1,4.6,8,9.8,7.9,10.6C32.9,36,30.4,36.2,27.6,35.5z M33.4,37.8c-0.4-0.4-0.8-0.3-1.6-0.1c-1.6,0.3-2.5,0.5-3.1,0.5
		c-2,0.1-2.2-0.9-3.6-0.4c-0.9,0.4-1.6,1.1-1.8,1.4c-0.3,0.3-0.7,0.8-1.1,1.6c-0.4,0.9-0.3,1.1-0.7,2.9c-0.4,1.7-0.7,2-0.5,2.6
		c0.2,0.6,0.5,0.5,1.1,1.2c0.8,0.9,0.6,1.5,1.4,2.5c0.8,1,1.6,1.4,2.1,1.6c0.8,0.4,0.8,0.1,1.9,0.5c1.4,0.5,1.3,0.3,1.9,0.2
		c0.6-0.2,4-6.3,4.3-7.7c0.1-0.7,0.5-2.2,0.4-4.1C34,39.4,34,38.3,33.4,37.8z"/>
</g>
<g id="a4">
</g>
<g id="a5">
</g>
<g id="a6">
</g>
<g id="a7">
</g>
<g id="Layer_9">
</g>
</svg>
