<?xml version="1.0" encoding="utf-8"?>
<!-- Generator: Adobe Illustrator 20.1.0, SVG Export Plug-In . SVG Version: 6.00 Build 0)  -->
<svg version="1.1" xmlns="http://www.w3.org/2000/svg" xmlns:xlink="http://www.w3.org/1999/xlink" x="0px" y="0px"
	 viewBox="0 0 72 72" style="enable-background:new 0 0 72 72;" xml:space="preserve">
<style type="text/css">
	.st0{display:none;}
	.st1{fill:#777272;}
	.st2{fill:#F1B7AE;}
</style>
<g id="Layer_1" class="st0">
	
		<image style="display:inline;overflow:visible;" width="218" height="231" xlink:href="../tracing_photos/animaction.png"  transform="matrix(1 0 0 1 -161.1945 -43.5)">
	</image>
</g>
<g id="a1">
</g>
<g id="a2">
</g>
<g id="a3">
</g>
<g id="a4">
	<path class="st1" d="M38.4,36c-0.2-1-0.9-2.1-1.1-2.4c0,0,0,0-0.1-0.1c-0.2-0.2-0.4-0.2-0.4-0.3c0-0.1,0.2-0.2,0.3-0.4
		c0.1-0.2-0.1-0.3-0.3-0.7c-0.2-0.5,0-0.8-0.2-1c-0.1-0.1-0.3-0.1-0.4-0.1c0,0-0.1,0-0.2,0.2C35.9,31,35.8,31,35.8,31
		c-0.1,0-0.3,0-0.4,0.1c-0.2,0.2-0.1,0.4-0.2,1c-0.1,0.4-0.3,0.5-0.3,0.7c0.1,0.2,0.3,0.3,0.3,0.4c0,0.1-0.2,0.1-0.4,0.3
		c0,0,0,0.1-0.1,0.1c-0.2,0.3-0.9,1.4-1.1,2.4c-0.2,1-0.1,1.8,0.2,3.3c0.2,0.9,0.2,1.2,0.8,3.2c0.5,2,0.7,3,0.8,3.8
		c0.2,1.5,0.3,2.2,0.1,3.1c-0.1,0.8-0.3,1.5-0.1,2.4c0.2,0.5,0.4,0.9,0.6,1.1c0.2-0.2,0.5-0.6,0.6-1.1c0.3-0.9,0.1-1.6-0.1-2.4
		c-0.1-0.9,0-1.6,0.1-3.1c0.1-0.8,0.3-1.8,0.8-3.8c0.5-2.1,0.6-2.3,0.8-3.2C38.5,37.8,38.6,37,38.4,36z"/>
	<g>
		<path class="st1" d="M54.1,16.1c-0.3-1-1.9-0.5-2.9-0.2c-2,0.6-3.4,1.7-3.7,2c-1.4,1.1-2.3,2.3-3.5,4c-1.7,2.3-2.9,4.3-4.3,6.9
			c-1.5,2.7-2.3,4-2.6,5.2c-0.2,0.7-1.5,5.3-0.4,9.6c0.1,0.3,0.3,0.9,0.7,2.1c0.5,1.4,1.1,2.8,2.3,5.9c1.8,4.2,2,4.4,2.3,4.6
			c1,0.6,2,0,3.2-0.8c0.8-0.5,2.1-1.7,3.3-4c0.5-1,1.2-2.3,1.5-4.4c0.1-0.5,0.3-2.2,0-4.4c-0.2-1.7-0.7-2.8-0.8-3.1
			c-0.6-1.4-1.3-2.2-1.7-2.6c0.3,0.1,1,0.3,1.8-0.4c0.7-0.6,1-1.5,1.2-2.1c0.3-1,0.4-1.8,0.5-3.2c0.3-2.5,0.4-3.8,0.7-5.1
			c0.5-2,0.8-1.7,1.4-4c0.3-1.3,0.2-1.4,0.7-3.2C54,16.9,54.2,16.6,54.1,16.1z"/>
		<path class="st1" d="M17.9,16.1c0.3-1,1.9-0.5,2.9-0.2c2,0.6,3.4,1.7,3.7,2c1.4,1.1,2.3,2.3,3.5,4c1.7,2.3,2.9,4.3,4.3,6.9
			c1.5,2.7,2.3,4,2.6,5.2c0.2,0.7,1.5,5.3,0.4,9.6c-0.1,0.3-0.3,0.9-0.7,2.1c-0.5,1.4-1.1,2.8-2.3,5.9c-1.8,4.2-2,4.4-2.3,4.6
			c-1,0.6-2,0-3.2-0.8c-0.8-0.5-2.1-1.7-3.3-4c-0.5-1-1.2-2.3-1.5-4.4c-0.1-0.5-0.3-2.2,0-4.4c0.2-1.7,0.7-2.8,0.8-3.1
			c0.6-1.4,1.3-2.2,1.7-2.6c-0.3,0.1-1,0.3-1.8-0.4c-0.7-0.6-1-1.5-1.2-2.1c-0.3-1-0.4-1.8-0.5-3.2c-0.3-2.5-0.4-3.8-0.7-5.1
			c-0.5-2-0.8-1.7-1.4-4c-0.3-1.3-0.2-1.4-0.7-3.2C18,16.9,17.8,16.6,17.9,16.1z"/>
		<path class="st2" d="M38.5,33.7c-0.1-0.8,1.5-6,6.6-10.6c1.7-1.6,2.2-2.6,2.9-2.2c0.7,0.3,1.4,1.3,1.4,2.4c0,1.2-0.8,1.5-0.8,3
			c0,1.1,0.4,1.1,0.5,2.6c0.1,1-0.1,2-0.2,2.9c-0.2,1-0.2,1.5-0.4,1.8c-0.5,0.7-1.2,0-2.3-0.1c-0.5-0.1-0.5,0.1-3.2,0.9
			C40.7,35,38.6,34.7,38.5,33.7z M37.6,39.2c-0.1,1.9,0.2,3.5,0.3,4.1c0.3,1.4,3.1,7.5,3.6,7.7c0.4,0.2,0.4,0.3,1.6-0.2
			c0.9-0.4,1-0.1,1.6-0.5c0.4-0.2,1.1-0.6,1.8-1.6c0.6-1,0.5-1.6,1.2-2.5c0.5-0.7,0.8-0.7,1-1.2c0.1-0.6-0.1-0.9-0.4-2.6
			c-0.4-1.8-0.3-2-0.6-2.9c-0.3-0.8-0.7-1.3-0.9-1.6c-0.2-0.3-0.8-1-1.5-1.4c-1.2-0.5-1.4,0.5-3,0.4c-0.5,0-1.2-0.2-2.6-0.5
			c-0.6-0.1-1-0.2-1.3,0.1C37.7,37,37.7,38.2,37.6,39.2z"/>
		<path class="st2" d="M29,34.2c-2.6-0.8-2.6-1-3.2-0.9c-1.1,0.2-1.9,0.9-2.3,0.1c-0.2-0.2-0.2-0.8-0.4-1.8
			c-0.1-0.9-0.3-1.8-0.2-2.9c0.1-1.5,0.5-1.6,0.5-2.6c0-1.5-0.8-1.8-0.8-3c0-1.1,0.7-2.1,1.4-2.4c0.8-0.3,1.2,0.7,2.9,2.2
			c5.1,4.6,6.7,9.8,6.6,10.6C33.4,34.7,31.3,35,29,34.2z M33.8,36.5c-0.3-0.4-0.7-0.3-1.3-0.1c-1.4,0.3-2,0.5-2.6,0.5
			c-1.6,0.1-1.8-0.9-3-0.4c-0.8,0.4-1.3,1.1-1.5,1.4c-0.2,0.3-0.6,0.8-0.9,1.6c-0.3,0.9-0.2,1.1-0.6,2.9c-0.4,1.7-0.6,2-0.4,2.6
			c0.1,0.6,0.4,0.5,1,1.2c0.7,0.9,0.5,1.5,1.2,2.5c0.6,1,1.4,1.4,1.8,1.6c0.7,0.4,0.7,0.1,1.6,0.5c1.1,0.5,1.1,0.3,1.6,0.2
			c0.5-0.2,3.3-6.3,3.6-7.7c0.1-0.7,0.4-2.2,0.3-4.1C34.3,38.2,34.3,37,33.8,36.5z"/>
	</g>
</g>
<g id="a5">
</g>
<g id="a6">
</g>
<g id="a7">
</g>
<g id="Layer_9">
</g>
</svg>
