<?xml version="1.0" encoding="utf-8"?>
<!-- Generator: Adobe Illustrator 20.1.0, SVG Export Plug-In . SVG Version: 6.00 Build 0)  -->
<svg version="1.1" xmlns="http://www.w3.org/2000/svg" xmlns:xlink="http://www.w3.org/1999/xlink" x="0px" y="0px"
	 viewBox="0 0 72 72" style="enable-background:new 0 0 72 72;" xml:space="preserve">
<style type="text/css">
	.st0{display:none;}
	.st1{fill:#777272;}
	.st2{fill:#F1B7AE;}
</style>
<g id="Layer_1" class="st0">
</g>
<g id="a1">
</g>
<g id="a2">
</g>
<g id="a3">
</g>
<g id="a4">
</g>
<g id="a5">
</g>
<g id="a6">
</g>
<g id="a7">
	<path class="st1" d="M38.4,36c-0.2-1-0.9-2.1-1.1-2.4c0,0,0,0-0.1-0.1c-0.2-0.2-0.4-0.2-0.4-0.3c0-0.1,0.2-0.2,0.3-0.4
		c0.1-0.2-0.1-0.3-0.3-0.7c-0.2-0.5,0-0.8-0.2-1c-0.1-0.1-0.3-0.1-0.4-0.1c0,0-0.1,0-0.2,0.2C35.9,31,35.8,31,35.8,31
		c-0.1,0-0.3,0-0.4,0.1c-0.2,0.2-0.1,0.4-0.2,1c-0.1,0.4-0.3,0.5-0.3,0.7c0.1,0.2,0.3,0.3,0.3,0.4c0,0.1-0.2,0.1-0.4,0.3
		c0,0,0,0.1-0.1,0.1c-0.2,0.3-0.9,1.4-1.1,2.4c-0.2,1-0.1,1.8,0.2,3.3c0.2,0.9,0.2,1.2,0.8,3.2c0.5,2,0.7,3,0.8,3.8
		c0.2,1.5,0.3,2.2,0.1,3.1c-0.1,0.8-0.3,1.5-0.1,2.4c0.2,0.5,0.4,0.9,0.6,1.1c0.2-0.2,0.5-0.6,0.6-1.1c0.3-0.9,0.1-1.6-0.1-2.4
		c-0.1-0.9,0-1.6,0.1-3.1c0.1-0.8,0.3-1.8,0.8-3.8c0.5-2.1,0.6-2.3,0.8-3.2C38.5,37.8,38.6,37,38.4,36z"/>
	<g>
		<path class="st1" d="M43.3,16.1c-0.1-1-0.8-0.5-1.1-0.2c-0.8,0.6-1.4,1.7-1.5,2c-0.6,1.1-0.9,2.3-1.4,4c-0.7,2.3-1.2,4.3-1.7,6.9
			c-0.6,2.7-0.9,4-1.1,5.2c-0.1,0.7-0.6,5.3-0.2,9.6c0,0.3,0.1,0.9,0.3,2.1c0.2,1.4,0.4,2.8,0.9,5.9c0.7,4.2,0.8,4.4,0.9,4.6
			c0.4,0.6,0.8,0,1.3-0.8c0.3-0.5,0.9-1.7,1.3-4c0.2-1,0.5-2.3,0.6-4.4c0-0.5,0.1-2.2,0-4.4c-0.1-1.7-0.3-2.8-0.3-3.1
			c-0.2-1.4-0.5-2.2-0.7-2.6c0.1,0.1,0.4,0.3,0.7-0.4c0.3-0.6,0.4-1.5,0.5-2.1c0.1-1,0.1-1.8,0.2-3.2c0.1-2.5,0.2-3.8,0.3-5.1
			c0.2-2,0.3-1.7,0.6-4c0.1-1.3,0.1-1.4,0.3-3.2C43.3,16.9,43.4,16.6,43.3,16.1z"/>
		<path class="st1" d="M28.7,16.1c0.1-1,0.8-0.5,1.1-0.2c0.8,0.6,1.4,1.7,1.5,2c0.6,1.1,0.9,2.3,1.4,4c0.7,2.3,1.2,4.3,1.7,6.9
			c0.6,2.7,0.9,4,1.1,5.2c0.1,0.7,0.6,5.3,0.2,9.6c0,0.3-0.1,0.9-0.3,2.1c-0.2,1.4-0.4,2.8-0.9,5.9c-0.7,4.2-0.8,4.4-0.9,4.6
			c-0.4,0.6-0.8,0-1.3-0.8c-0.3-0.5-0.9-1.7-1.3-4c-0.2-1-0.5-2.3-0.6-4.4c0-0.5-0.1-2.2,0-4.4c0.1-1.7,0.3-2.8,0.3-3.1
			c0.2-1.4,0.5-2.2,0.7-2.6c-0.1,0.1-0.4,0.3-0.7-0.4c-0.3-0.6-0.4-1.5-0.5-2.1c-0.1-1-0.1-1.8-0.2-3.2c-0.1-2.5-0.2-3.8-0.3-5.1
			c-0.2-2-0.3-1.7-0.6-4c-0.1-1.3-0.1-1.4-0.3-3.2C28.7,16.9,28.6,16.6,28.7,16.1z"/>
		<path class="st2" d="M37.1,33.7c0-0.8,0.6-6,2.4-10.6c0.6-1.6,0.8-2.6,1.1-2.2c0.2,0.3,0.5,1.3,0.5,2.4c0,1.2-0.3,1.5-0.3,3
			c0,1.1,0.2,1.1,0.2,2.6c0,1,0,2-0.1,2.9c-0.1,1-0.1,1.5-0.1,1.8c-0.2,0.7-0.5,0-0.9-0.1c-0.2-0.1-0.2,0.1-1.2,0.9
			C37.9,35,37.1,34.7,37.1,33.7z M36.7,39.2c0,1.9,0.1,3.5,0.1,4.1c0.1,1.4,1.1,7.5,1.3,7.7c0.2,0.2,0.1,0.3,0.6-0.2
			c0.3-0.4,0.3-0.1,0.6-0.5c0.1-0.2,0.4-0.6,0.6-1.6c0.2-1,0.2-1.6,0.4-2.5c0.2-0.7,0.3-0.7,0.3-1.2c0-0.6,0-0.9-0.2-2.6
			c-0.1-1.8-0.1-2-0.2-2.9c-0.1-0.8-0.2-1.3-0.3-1.6c-0.1-0.3-0.3-1-0.6-1.4C39,35.9,39,37,38.4,36.9c-0.2,0-0.4-0.2-0.9-0.5
			c-0.2-0.1-0.4-0.2-0.5,0.1C36.8,37,36.8,38.2,36.7,39.2z"/>
		<path class="st2" d="M33.3,34.2c-1-0.8-1-1-1.2-0.9c-0.4,0.2-0.7,0.9-0.9,0.1c-0.1-0.2-0.1-0.8-0.1-1.8c-0.1-0.9-0.1-1.8-0.1-2.9
			c0-1.5,0.2-1.6,0.2-2.6c0-1.5-0.3-1.8-0.3-3c0-1.1,0.3-2.1,0.5-2.4c0.3-0.3,0.4,0.7,1.1,2.2c1.8,4.6,2.4,9.8,2.4,10.6
			C34.9,34.7,34.1,35,33.3,34.2z M35,36.5c-0.1-0.4-0.2-0.3-0.5-0.1c-0.5,0.3-0.7,0.5-0.9,0.5C33,37,33,35.9,32.5,36.5
			c-0.3,0.4-0.5,1.1-0.6,1.4c-0.1,0.3-0.2,0.8-0.3,1.6c-0.1,0.9-0.1,1.1-0.2,2.9c-0.1,1.7-0.2,2-0.2,2.6c0,0.6,0.2,0.5,0.3,1.2
			c0.3,0.9,0.2,1.5,0.4,2.5c0.2,1,0.5,1.4,0.6,1.6c0.2,0.4,0.3,0.1,0.6,0.5c0.4,0.5,0.4,0.3,0.6,0.2c0.2-0.2,1.2-6.3,1.3-7.7
			c0-0.7,0.1-2.2,0.1-4.1C35.2,38.2,35.2,37,35,36.5z"/>
	</g>
</g>
<g id="Layer_9">
</g>
</svg>
