<?xml version="1.0" encoding="utf-8"?>
<!-- Generator: Adobe Illustrator 20.1.0, SVG Export Plug-In . SVG Version: 6.00 Build 0)  -->
<svg version="1.1" xmlns="http://www.w3.org/2000/svg" xmlns:xlink="http://www.w3.org/1999/xlink" x="0px" y="0px"
	 viewBox="0 0 72 72" style="enable-background:new 0 0 72 72;" xml:space="preserve">
<style type="text/css">
	.st0{display:none;}
	.st1{fill:#777272;}
	.st2{fill:#F1B7AE;}
</style>
<g id="Layer_1" class="st0">
</g>
<g id="a1">
</g>
<g id="a2">
</g>
<g id="a3">
</g>
<g id="a4">
</g>
<g id="a5">
</g>
<g id="a6">
</g>
<g id="a7">
</g>
<g id="Layer_9">
	<path class="st1" d="M38.4,36c-0.2-1-0.9-2.1-1.1-2.4c0,0,0,0-0.1-0.1c-0.2-0.2-0.4-0.2-0.4-0.3c0-0.1,0.2-0.2,0.3-0.4
		c0.1-0.2-0.1-0.3-0.3-0.7c-0.2-0.5,0-0.8-0.2-1c-0.1-0.1-0.3-0.1-0.4-0.1c0,0-0.1,0-0.2,0.2C35.9,31,35.8,31,35.8,31
		c-0.1,0-0.3,0-0.4,0.1c-0.2,0.2-0.1,0.4-0.2,1c-0.1,0.4-0.3,0.5-0.3,0.7c0.1,0.2,0.3,0.3,0.3,0.4c0,0.1-0.2,0.1-0.4,0.3
		c0,0,0,0.1-0.1,0.1c-0.2,0.3-0.9,1.4-1.1,2.4c-0.2,1-0.1,1.8,0.2,3.3c0.2,0.9,0.2,1.2,0.8,3.2c0.5,2,0.7,3,0.8,3.8
		c0.2,1.5,0.3,2.2,0.1,3.1c-0.1,0.8-0.3,1.5-0.1,2.4c0.2,0.5,0.4,0.9,0.6,1.1c0.2-0.2,0.5-0.6,0.6-1.1c0.3-0.9,0.1-1.6-0.1-2.4
		c-0.1-0.9,0-1.6,0.1-3.1c0.1-0.8,0.3-1.8,0.8-3.8c0.5-2.1,0.6-2.3,0.8-3.2C38.5,37.8,38.6,37,38.4,36z"/>
	<g>
		<path class="st1" d="M39.7,16.1c-0.1-1-0.4-0.5-0.6-0.2c-0.4,0.6-0.7,1.7-0.7,2c-0.3,1.1-0.5,2.3-0.7,4c-0.3,2.3-0.6,4.3-0.9,6.9
			c-0.3,2.7-0.5,4-0.5,5.2c0,0.7-0.3,5.3-0.1,9.6c0,0.3,0.1,0.9,0.1,2.1c0.1,1.4,0.2,2.8,0.5,5.9c0.4,4.2,0.4,4.4,0.5,4.6
			c0.2,0.6,0.4,0,0.6-0.8c0.2-0.5,0.4-1.7,0.7-4c0.1-1,0.2-2.3,0.3-4.4c0-0.5,0.1-2.2,0-4.4c0-1.7-0.1-2.8-0.2-3.1
			c-0.1-1.4-0.3-2.2-0.3-2.6c0.1,0.1,0.2,0.3,0.4-0.4c0.1-0.6,0.2-1.5,0.2-2.1c0.1-1,0.1-1.8,0.1-3.2c0.1-2.5,0.1-3.8,0.1-5.1
			c0.1-2,0.2-1.7,0.3-4c0.1-1.3,0-1.4,0.1-3.2C39.7,16.9,39.8,16.6,39.7,16.1z"/>
		<path class="st1" d="M32.3,16.1c0.1-1,0.4-0.5,0.6-0.2c0.4,0.6,0.7,1.7,0.7,2c0.3,1.1,0.5,2.3,0.7,4c0.3,2.3,0.6,4.3,0.9,6.9
			c0.3,2.7,0.5,4,0.5,5.2c0,0.7,0.3,5.3,0.1,9.6c0,0.3-0.1,0.9-0.1,2.1c-0.1,1.4-0.2,2.8-0.5,5.9c-0.4,4.2-0.4,4.4-0.5,4.6
			c-0.2,0.6-0.4,0-0.6-0.8c-0.2-0.5-0.4-1.7-0.7-4c-0.1-1-0.2-2.3-0.3-4.4c0-0.5-0.1-2.2,0-4.4c0-1.7,0.1-2.8,0.2-3.1
			c0.1-1.4,0.3-2.2,0.3-2.6c-0.1,0.1-0.2,0.3-0.4-0.4c-0.1-0.6-0.2-1.5-0.2-2.1c-0.1-1-0.1-1.8-0.1-3.2c-0.1-2.5-0.1-3.8-0.1-5.1
			c-0.1-2-0.2-1.7-0.3-4c-0.1-1.3,0-1.4-0.1-3.2C32.3,16.9,32.2,16.6,32.3,16.1z"/>
		<path class="st2" d="M36.6,34.4c0-0.6,0.2-4.1,0.8-7.3c0.2-1.1,0.3-1.8,0.4-1.5c0.1,0.2,0.2,0.9,0.2,1.6c0,0.8-0.1,1.1-0.1,2.1
			c0,0.7,0.1,0.8,0.1,1.8c0,0.7,0,1.3,0,2c0,0.7,0,1,0,1.2c-0.1,0.5-0.2,0-0.3-0.1c-0.1-0.1-0.1,0-0.4,0.6
			C36.8,35.3,36.6,35.1,36.6,34.4z M36.4,38.2c0,1.3,0,2.4,0,2.8c0,1,0.4,5.2,0.4,5.3c0.1,0.1,0,0.2,0.2-0.1
			c0.1-0.3,0.1-0.1,0.2-0.3c0-0.1,0.1-0.4,0.2-1.1c0.1-0.7,0.1-1.1,0.1-1.7c0.1-0.5,0.1-0.5,0.1-0.9c0-0.4,0-0.6-0.1-1.8
			c0-1.2,0-1.4-0.1-2c0-0.6-0.1-0.9-0.1-1.1c0-0.2-0.1-0.7-0.2-0.9c-0.1-0.4-0.2,0.3-0.4,0.3c-0.1,0-0.1-0.1-0.3-0.3
			c-0.1-0.1-0.1-0.2-0.2,0.1C36.5,36.7,36.5,37.5,36.4,38.2z"/>
		<path class="st2" d="M34.9,34.8c-0.3-0.6-0.3-0.7-0.4-0.6c-0.1,0.1-0.2,0.6-0.3,0.1c0-0.2,0-0.5,0-1.2c0-0.6,0-1.3,0-2
			c0-1,0.1-1.1,0.1-1.8c0-1-0.1-1.2-0.1-2.1c0-0.7,0.1-1.4,0.2-1.6c0.1-0.2,0.1,0.5,0.4,1.5c0.6,3.2,0.8,6.7,0.8,7.3
			C35.4,35.1,35.2,35.3,34.9,34.8z M35.5,36.3c0-0.3-0.1-0.2-0.2-0.1c-0.2,0.2-0.2,0.3-0.3,0.3c-0.2,0.1-0.2-0.6-0.4-0.3
			c-0.1,0.2-0.2,0.8-0.2,0.9c0,0.2-0.1,0.5-0.1,1.1c0,0.6,0,0.8-0.1,2c0,1.2-0.1,1.4-0.1,1.8c0,0.4,0.1,0.4,0.1,0.9
			c0.1,0.6,0.1,1,0.1,1.7c0.1,0.7,0.2,1,0.2,1.1c0.1,0.2,0.1,0.1,0.2,0.3c0.1,0.3,0.1,0.2,0.2,0.1c0.1-0.1,0.4-4.3,0.4-5.3
			c0-0.4,0-1.5,0-2.8C35.5,37.5,35.5,36.7,35.5,36.3z"/>
	</g>
</g>
</svg>
